<mxfile host="app.diagrams.net" modified="2022-06-04T02:51:47.934Z" agent="5.0 (Windows NT 10.0; Win64; x64) AppleWebKit/537.36 (KHTML, like Gecko) Chrome/98.0.4758.102 Safari/537.36" etag="QpYKbNKASQfCfgVOz5kT" version="18.1.2" type="github">
  <diagram id="sYZ83C-_U_jABscMuibY" name="Page-1">
    <mxGraphModel dx="1038" dy="539" grid="0" gridSize="10" guides="1" tooltips="1" connect="1" arrows="1" fold="1" page="0" pageScale="1" pageWidth="827" pageHeight="1169" math="0" shadow="0">
      <root>
        <mxCell id="0" />
        <mxCell id="1" parent="0" />
        <mxCell id="DECZ2OcEeWhnyg0SZS9I-1" value="0&lt;font color=&quot;#ff3333&quot;&gt;101 0&lt;/font&gt;&lt;font color=&quot;#6666ff&quot;&gt;101&amp;nbsp;&lt;/font&gt;" style="text;html=1;align=center;verticalAlign=middle;resizable=0;points=[];autosize=1;strokeColor=none;fillColor=none;fontSize=16;" vertex="1" parent="1">
          <mxGeometry x="296" y="215" width="100" height="20" as="geometry" />
        </mxCell>
        <mxCell id="DECZ2OcEeWhnyg0SZS9I-2" value="" style="endArrow=classic;html=1;rounded=0;shadow=0;fontSize=16;fontColor=#6666FF;fontFamily=Times New Roman;exitX=0.306;exitY=1.18;exitDx=0;exitDy=0;exitPerimeter=0;" edge="1" parent="1" source="DECZ2OcEeWhnyg0SZS9I-1">
          <mxGeometry width="50" height="50" relative="1" as="geometry">
            <mxPoint x="251" y="318" as="sourcePoint" />
            <mxPoint x="287" y="279" as="targetPoint" />
          </mxGeometry>
        </mxCell>
        <mxCell id="DECZ2OcEeWhnyg0SZS9I-3" value="" style="endArrow=classic;html=1;rounded=0;shadow=0;fontSize=16;fontColor=#6666FF;fontFamily=Times New Roman;" edge="1" parent="1">
          <mxGeometry width="50" height="50" relative="1" as="geometry">
            <mxPoint x="372" y="240" as="sourcePoint" />
            <mxPoint x="404" y="281" as="targetPoint" />
          </mxGeometry>
        </mxCell>
        <mxCell id="DECZ2OcEeWhnyg0SZS9I-4" value="&lt;font color=&quot;#6666ff&quot;&gt;wire type = 3&lt;/font&gt;" style="text;html=1;align=center;verticalAlign=middle;resizable=0;points=[];autosize=1;strokeColor=none;fillColor=none;fontSize=16;fontFamily=Times New Roman;fontColor=#000000;" vertex="1" parent="1">
          <mxGeometry x="370" y="289" width="95" height="23" as="geometry" />
        </mxCell>
        <mxCell id="DECZ2OcEeWhnyg0SZS9I-5" value="&lt;font color=&quot;#ff3333&quot;&gt;field number = 10&lt;/font&gt;" style="text;html=1;align=center;verticalAlign=middle;resizable=0;points=[];autosize=1;strokeColor=none;fillColor=none;fontSize=16;fontFamily=Times New Roman;fontColor=#000000;" vertex="1" parent="1">
          <mxGeometry x="211" y="285" width="125" height="23" as="geometry" />
        </mxCell>
      </root>
    </mxGraphModel>
  </diagram>
</mxfile>
